<svg width="16" height="17" viewBox="0 0 16 17" fill="none" xmlns="http://www.w3.org/2000/svg">
<path d="M10 3.83325L14.2 8.03325C14.3492 8.1819 14.4675 8.35853 14.5483 8.55301C14.629 8.74749 14.6706 8.956 14.6706 9.16658C14.6706 9.37717 14.629 9.58568 14.5483 9.78016C14.4675 9.97464 14.3492 10.1513 14.2 10.2999L11.3333 13.1666" stroke="#71717A" stroke-width="1.33333" stroke-linecap="round" stroke-linejoin="round"/>
<path d="M6.39083 4.22392C6.14084 3.97385 5.80176 3.83333 5.44816 3.83325H2.00016C1.82335 3.83325 1.65378 3.90349 1.52876 4.02851C1.40373 4.15354 1.3335 4.32311 1.3335 4.49992V7.94792C1.33357 8.30151 1.4741 8.6406 1.72416 8.89059L5.52683 12.6933C5.82984 12.9943 6.23966 13.1633 6.66683 13.1633C7.094 13.1633 7.50382 12.9943 7.80683 12.6933L10.1935 10.3066C10.4946 10.0036 10.6636 9.59375 10.6636 9.16659C10.6636 8.73942 10.4946 8.32959 10.1935 8.02659L6.39083 4.22392Z" stroke="#71717A" stroke-width="1.33333" stroke-linecap="round" stroke-linejoin="round"/>
<path d="M4.33333 7.16667C4.51743 7.16667 4.66667 7.01743 4.66667 6.83333C4.66667 6.64924 4.51743 6.5 4.33333 6.5C4.14924 6.5 4 6.64924 4 6.83333C4 7.01743 4.14924 7.16667 4.33333 7.16667Z" fill="#71717A" stroke="#71717A" stroke-width="1.33333" stroke-linecap="round" stroke-linejoin="round"/>
</svg>
